<svg xmlns="http://www.w3.org/2000/svg" xmlns:xlink="http://www.w3.org/1999/xlink" width="322" height="124" viewBox="0 0 322 124">
    <defs>
        <rect id="prefix__a" width="322" height="124" x="0" y="0" rx="2"/>
    </defs>
    <g fill="none" fill-rule="evenodd">
        <mask id="prefix__b" fill="#fff">
            <use xlink:href="#prefix__a"/>
        </mask>
        <use fill="#EBEDEF" xlink:href="#prefix__a"/>
        <g fill-rule="nonzero" mask="url(#prefix__b)">
            <g transform="translate(36 12)">
                <path fill="#E6E6E6" d="M0.11 0.146H257.65500000000003V165.089H0.11z"/>
                <path fill="#FFF" d="M7.474 20.834H250.29V155.33100000000002H7.474z"/>
                <path fill="#DB374E" d="M0 0H257.545V10.941H0z"/>
                <circle cx="8.131" cy="5.594" r="2.028" fill="#FFF"/>
                <circle cx="15.828" cy="5.594" r="2.028" fill="#FFF"/>
                <circle cx="23.526" cy="5.594" r="2.028" fill="#FFF"/>
                <path fill="#E6E6E6" d="M29.538 34.789H91.93V141.376H29.538z"/>
                <path fill="#DB374E" d="M102.7 34.789H154.69400000000002V64.128H102.7z"/>
                <path fill="#E6E6E6" d="M102.7 72.299H154.69400000000002V103.86600000000001H102.7zM165.835 34.789H228.227V81.239H165.835z"/>
                <path fill="#DB374E" d="M165.835 94.926H228.227V141.376H165.835z"/>
                <path fill="#3F3D56" d="M239.032 33.419c-22.302-18.82-55.52-16.52-75.016 5.193-19.495 21.713-18.218 54.986 2.885 75.14 21.103 20.155 54.4 19.901 75.193-.572l66.247 55.899c1.36 1.147 3.227 1.482 4.9.878 1.672-.603 2.896-2.054 3.21-3.804.313-1.75-.331-3.535-1.69-4.682l-66.248-55.899c15.95-22.89 11.84-54.16-9.481-72.153zm-4.27 66.77c-10.555 12.509-27.604 17.427-43.2 12.463-15.594-4.964-26.663-18.834-28.044-35.14-1.382-16.308 7.196-31.842 21.733-39.359 14.538-7.517 32.172-5.537 44.68 5.017 17.079 14.412 19.242 39.94 4.83 57.02z"/>
                <path fill="#000" d="M177.742 105.02c-16.095-13.582-19.081-37.24-6.866-54.395-.774.779-1.522 1.595-2.244 2.448-9.324 11.048-12.045 26.231-7.138 39.83 4.907 13.598 16.696 23.546 30.926 26.095 14.23 2.55 28.74-2.687 38.062-13.737.72-.854 1.399-1.728 2.036-2.623-14.857 14.927-38.68 15.963-54.776 2.382z" opacity=".3"/>
            </g>
        </g>
    </g>
</svg>
