<svg xmlns="http://www.w3.org/2000/svg" xmlns:xlink="http://www.w3.org/1999/xlink" width="322" height="124" viewBox="0 0 322 124">
    <defs>
        <rect id="prefix__a" width="322" height="124" x="0" y="0" rx="2"/>
    </defs>
    <g fill="none" fill-rule="evenodd">
        <mask id="prefix__b" fill="#fff">
            <use xlink:href="#prefix__a"/>
        </mask>
        <use fill="#EBEDEF" xlink:href="#prefix__a"/>
        <g fill-rule="nonzero" mask="url(#prefix__b)">
            <g transform="translate(20 -11)">
                <path fill="#FFA723" d="M158.309 26.546c-17.94.024-35.208-5.061-51.725-10.71-16.517-5.65-32.906-11.977-50.513-14.658C44.748-.545 31.872-.386 23.021 5.87c-8.52 6.02-10.987 15.982-12.178 25.186-.895 6.924-1.308 14.191 2.045 20.525 2.328 4.397 6.312 8.02 9.12 12.211 9.802 14.578 3.907 33.2-5.618 48.115-4.467 6.999-9.699 13.707-13.076 21.106-3.376 7.399-4.761 15.79-1.317 23.093 3.413 7.238 11.121 12.492 19.394 16.08 16.8 7.3 36.36 8.865 55.395 9.468 42.134 1.336 84.35-1.39 126.453-4.116 15.581-1.008 31.231-2.024 46.49-4.944 8.473-1.62 17.197-4.025 23.204-9.296 7.625-6.69 9.185-17.616 3.636-25.468-9.305-13.172-33.84-15.656-40.512-29.907-3.68-7.845-.507-16.843 4.166-24.405 10.023-16.227 27.274-30.761 27.564-48.91.2-12.463-8.772-24.622-22.171-30.038-14.045-5.674-33.194-4.215-43.034 6.36-10.119 10.893-28.433 15.6-44.273 15.616z" opacity=".1"/>
                <path fill="#3F3D56" d="M249.456 20.695H18.845c-1.135 0-2.055.92-2.055 2.055v5.985h234.72V22.75c0-.545-.216-1.068-.601-1.453-.386-.385-.908-.602-1.453-.602z"/>
                <path fill="#FFF" d="M16.79 28.735v134.698c0 2.288 1.855 4.142 4.143 4.142h226.435c2.288 0 4.142-1.854 4.142-4.142V28.735H16.79z"/>
                <circle cx="20.508" cy="24.655" r="1" fill="#FA5959" opacity=".8"/>
                <circle cx="23.148" cy="24.655" r="1" fill="#FED253" opacity=".8"/>
                <circle cx="25.788" cy="24.655" r="1" fill="#8CCF4D" opacity=".8"/>
                <path fill="#000" d="M38.609 51.194H227.249V134.143H38.609z" opacity=".05"/>
                <path fill="#3F3D56" d="M40.049 51.823H225.809V132.943H40.049z"/>
                <path fill="#FFA723" d="M90.689 72.7c-10.206 0-18.48 8.275-18.48 18.48 0 10.207 8.274 18.48 18.48 18.48 10.206 0 18.48-8.273 18.48-18.48 0-4.9-1.947-9.6-5.413-13.067-3.466-3.465-8.166-5.412-13.067-5.412zm3.314 18.925v8.75H87.47v-8.75c-1.853-1.403-2.604-3.834-1.864-6.038s2.806-3.69 5.13-3.69c2.326 0 4.391 1.486 5.131 3.69.74 2.204-.01 4.635-1.864 6.038z"/>
                <path fill="#000" d="M90.689 72.7c-10.206 0-18.48 8.275-18.48 18.48 0 10.207 8.274 18.48 18.48 18.48 10.206 0 18.48-8.273 18.48-18.48 0-4.9-1.947-9.6-5.413-13.067-3.466-3.465-8.166-5.412-13.067-5.412zm3.314 18.925v8.75H87.47v-8.75c-1.853-1.403-2.604-3.834-1.864-6.038s2.806-3.69 5.13-3.69c2.326 0 4.391 1.486 5.131 3.69.74 2.204-.01 4.635-1.864 6.038z" opacity=".05"/>
                <path fill="#FFA723" d="M90.689 67.42c-13.122 0-23.76 10.639-23.76 23.76 0 13.123 10.638 23.76 23.76 23.76 13.122 0 23.76-10.637 23.76-23.76 0-6.3-2.503-12.344-6.96-16.8-4.455-4.456-10.499-6.96-16.8-6.96zm4.26 24.332v11.249h-8.4V91.752c-2.385-1.804-3.35-4.93-2.398-7.765.951-2.835 3.608-4.745 6.598-4.745 2.99 0 5.646 1.91 6.598 4.745s-.014 5.96-2.398 7.765z"/>
                <path fill="#FFF" d="M124.289 88.063H201.089V96.223H124.289z"/>
                <path fill="#FFA723" d="M131.849 92.02h-1.39l1.236-1.233c.046-.047.046-.123 0-.17-.022-.023-.053-.036-.085-.036-.032 0-.063.013-.085.036l-1.236 1.236V90.46c0-.066-.054-.12-.12-.12-.066.001-.119.054-.12.12v1.392l-1.234-1.243c-.022-.023-.053-.036-.085-.036-.032 0-.063.013-.085.036-.046.047-.046.123 0 .17l1.236 1.234h-1.392c-.066 0-.119.054-.12.12 0 .066.054.12.12.12h1.392l-1.236 1.236c-.046.047-.046.123 0 .17.048.045.122.045.17 0l1.234-1.236v1.39c0 .066.054.12.12.12s.12-.054.12-.12v-1.39l1.236 1.236c.048.045.122.045.17 0 .046-.047.046-.123 0-.17l-1.236-1.236h1.39c.066 0 .12-.054.12-.12-.004-.064-.057-.113-.12-.113zM136.889 92.02h-1.39l1.236-1.233c.046-.047.046-.123 0-.17-.022-.023-.053-.036-.085-.036-.032 0-.063.013-.085.036l-1.236 1.236V90.46c0-.066-.054-.12-.12-.12-.066.001-.119.054-.12.12v1.392l-1.234-1.243c-.022-.023-.053-.036-.085-.036-.032 0-.063.013-.085.036-.046.047-.046.123 0 .17l1.236 1.234h-1.392c-.066 0-.119.054-.12.12 0 .066.054.12.12.12h1.392l-1.236 1.236c-.046.047-.046.123 0 .17.048.045.122.045.17 0l1.234-1.236v1.39c0 .066.054.12.12.12s.12-.054.12-.12v-1.39l1.236 1.236c.048.045.122.045.17 0 .046-.047.046-.123 0-.17l-1.236-1.236h1.39c.066 0 .12-.054.12-.12-.004-.064-.057-.113-.12-.113zM141.929 92.02h-1.39l1.236-1.233c.046-.047.046-.123 0-.17-.022-.023-.053-.036-.085-.036-.032 0-.063.013-.085.036l-1.236 1.236V90.46c0-.066-.054-.12-.12-.12-.066.001-.119.054-.12.12v1.392l-1.234-1.243c-.022-.023-.053-.036-.085-.036-.032 0-.063.013-.085.036-.046.047-.046.123 0 .17l1.236 1.234h-1.392c-.066 0-.119.054-.12.12 0 .066.054.12.12.12h1.392l-1.236 1.236c-.046.047-.046.123 0 .17.048.045.122.045.17 0l1.234-1.236v1.39c0 .066.054.12.12.12s.12-.054.12-.12v-1.39l1.236 1.236c.048.045.122.045.17 0 .046-.047.046-.123 0-.17l-1.236-1.236h1.39c.066 0 .12-.054.12-.12-.004-.064-.057-.113-.12-.113zM146.969 92.02h-1.39l1.236-1.233c.046-.047.046-.123 0-.17-.022-.023-.053-.036-.085-.036-.032 0-.063.013-.085.036l-1.236 1.236V90.46c0-.066-.054-.12-.12-.12-.066.001-.119.054-.12.12v1.392l-1.234-1.243c-.022-.023-.053-.036-.085-.036-.032 0-.063.013-.085.036-.046.047-.046.123 0 .17L145 92.014h-1.392c-.066 0-.119.054-.12.12 0 .066.054.12.12.12H145l-1.236 1.236c-.046.047-.046.123 0 .17.048.045.122.045.17 0l1.234-1.236v1.39c0 .066.054.12.12.12s.12-.054.12-.12v-1.39l1.236 1.236c.048.045.122.045.17 0 .046-.047.046-.123 0-.17l-1.236-1.236h1.39c.066 0 .12-.054.12-.12-.004-.064-.057-.113-.12-.113zM152.009 92.02h-1.39l1.236-1.233c.046-.047.046-.123 0-.17-.022-.023-.053-.036-.085-.036-.032 0-.063.013-.085.036l-1.236 1.236V90.46c0-.066-.054-.12-.12-.12-.066.001-.119.054-.12.12v1.392l-1.234-1.243c-.022-.023-.053-.036-.085-.036-.032 0-.063.013-.085.036-.046.047-.046.123 0 .17l1.236 1.234h-1.392c-.066 0-.119.054-.12.12 0 .066.054.12.12.12h1.392l-1.236 1.236c-.046.047-.046.123 0 .17.048.045.122.045.17 0l1.234-1.236v1.39c0 .066.054.12.12.12s.12-.054.12-.12v-1.39l1.236 1.236c.048.045.122.045.17 0 .046-.047.046-.123 0-.17l-1.236-1.236h1.39c.066 0 .12-.054.12-.12-.004-.064-.057-.113-.12-.113zM157.049 92.02h-1.39l1.236-1.233c.046-.047.046-.123 0-.17-.022-.023-.053-.036-.085-.036-.032 0-.063.013-.085.036l-1.236 1.236V90.46c0-.066-.054-.12-.12-.12-.066.001-.119.054-.12.12v1.392l-1.234-1.243c-.022-.023-.053-.036-.085-.036-.032 0-.063.013-.085.036-.046.047-.046.123 0 .17l1.236 1.234h-1.392c-.066 0-.119.054-.12.12 0 .066.054.12.12.12h1.392l-1.236 1.236c-.046.047-.046.123 0 .17.048.045.122.045.17 0l1.234-1.236v1.39c0 .066.054.12.12.12s.12-.054.12-.12v-1.39l1.236 1.236c.048.045.122.045.17 0 .046-.047.046-.123 0-.17l-1.236-1.236h1.39c.066 0 .12-.054.12-.12-.004-.064-.057-.113-.12-.113zM162.089 92.02h-1.39l1.236-1.233c.046-.047.046-.123 0-.17-.022-.023-.053-.036-.085-.036-.032 0-.063.013-.085.036l-1.236 1.236V90.46c0-.066-.054-.12-.12-.12-.066.001-.119.054-.12.12v1.392l-1.234-1.243c-.022-.023-.053-.036-.085-.036-.032 0-.063.013-.085.036-.046.047-.046.123 0 .17l1.236 1.234h-1.392c-.066 0-.119.054-.12.12 0 .066.054.12.12.12h1.392l-1.236 1.236c-.046.047-.046.123 0 .17.048.045.122.045.17 0l1.234-1.236v1.39c0 .066.054.12.12.12s.12-.054.12-.12v-1.39l1.236 1.236c.048.045.122.045.17 0 .046-.047.046-.123 0-.17l-1.236-1.236h1.39c.066 0 .12-.054.12-.12-.004-.064-.057-.113-.12-.113zM167.129 92.02h-1.39l1.236-1.233c.046-.047.046-.123 0-.17-.022-.023-.053-.036-.085-.036-.032 0-.063.013-.085.036l-1.236 1.236V90.46c0-.066-.054-.12-.12-.12-.066.001-.119.054-.12.12v1.392l-1.234-1.243c-.022-.023-.053-.036-.085-.036-.032 0-.063.013-.085.036-.046.047-.046.123 0 .17l1.236 1.234h-1.392c-.066 0-.119.054-.12.12 0 .066.054.12.12.12h1.392l-1.236 1.236c-.046.047-.046.123 0 .17.048.045.122.045.17 0l1.234-1.236v1.39c0 .066.054.12.12.12s.12-.054.12-.12v-1.39l1.236 1.236c.048.045.122.045.17 0 .046-.047.046-.123 0-.17l-1.236-1.236h1.39c.066 0 .12-.054.12-.12-.004-.064-.057-.113-.12-.113zM172.169 92.02h-1.39l1.236-1.233c.046-.047.046-.123 0-.17-.022-.023-.053-.036-.085-.036-.032 0-.063.013-.085.036l-1.236 1.236V90.46c0-.066-.054-.12-.12-.12-.066.001-.119.054-.12.12v1.392l-1.234-1.243c-.022-.023-.053-.036-.085-.036-.032 0-.063.013-.085.036-.046.047-.046.123 0 .17l1.236 1.234h-1.392c-.066 0-.119.054-.12.12 0 .066.054.12.12.12h1.392l-1.236 1.236c-.046.047-.046.123 0 .17.048.045.122.045.17 0l1.234-1.236v1.39c0 .066.054.12.12.12s.12-.054.12-.12v-1.39l1.236 1.236c.048.045.122.045.17 0 .046-.047.046-.123 0-.17l-1.236-1.236h1.39c.066 0 .12-.054.12-.12-.004-.064-.057-.113-.12-.113zM177.209 92.02h-1.39l1.236-1.233c.046-.047.046-.123 0-.17-.022-.023-.053-.036-.085-.036-.032 0-.063.013-.085.036l-1.236 1.236V90.46c0-.066-.054-.12-.12-.12-.066.001-.119.054-.12.12v1.392l-1.234-1.243c-.022-.023-.053-.036-.085-.036-.032 0-.063.013-.085.036-.046.047-.046.123 0 .17l1.236 1.234h-1.392c-.066 0-.119.054-.12.12 0 .066.054.12.12.12h1.392l-1.236 1.236c-.046.047-.046.123 0 .17.048.045.122.045.17 0l1.234-1.236v1.39c0 .066.054.12.12.12s.12-.054.12-.12v-1.39l1.236 1.236c.048.045.122.045.17 0 .046-.047.046-.123 0-.17l-1.236-1.236h1.39c.066 0 .12-.054.12-.12-.004-.064-.057-.113-.12-.113zM182.249 92.02h-1.39l1.236-1.233c.046-.047.046-.123 0-.17-.022-.023-.053-.036-.085-.036-.032 0-.063.013-.085.036l-1.236 1.236V90.46c0-.066-.054-.12-.12-.12-.066.001-.119.054-.12.12v1.392l-1.234-1.243c-.022-.023-.053-.036-.085-.036-.032 0-.063.013-.085.036-.046.047-.046.123 0 .17l1.236 1.234h-1.392c-.066 0-.119.054-.12.12 0 .066.054.12.12.12h1.392l-1.236 1.236c-.046.047-.046.123 0 .17.048.045.122.045.17 0l1.234-1.236v1.39c0 .066.054.12.12.12s.12-.054.12-.12v-1.39l1.236 1.236c.048.045.122.045.17 0 .046-.047.046-.123 0-.17l-1.236-1.236h1.39c.066 0 .12-.054.12-.12-.004-.064-.057-.113-.12-.113z"/>
                <path fill="#3F3D56" d="M198.902 113.76c-.192.384-.652.569-1.008.811l-1.216.835c-.165.148-.382.223-.603.207-.2-.074-.362-.225-.449-.42v-.02l-.252-.422-1.2-2.011c-.133-.18-.21-.395-.223-.62 0-.102.036-.198.046-.302.003-.29-.08-.574-.24-.816-.096-.18-.288-.328-.283-.53-.01-.265.036-.529.134-.775.126-.228.307-.421.526-.562.112-.081.228-.158.348-.24.063-.043.134-.076.208-.096.2-.04.396.125.598.132.866.581 1.2 1.68 1.882 2.472.384.451.422.797.856 1.2.07.063.137.13.202.2.086.093.159.198.216.311.08.207.557.45.458.646z"/>
            </g>
        </g>
    </g>
</svg>
