<svg xmlns="http://www.w3.org/2000/svg" xmlns:xlink="http://www.w3.org/1999/xlink" width="322" height="124" viewBox="0 0 322 124">
    <defs>
        <rect id="prefix__a" width="322" height="124" x="0" y="0" rx="2"/>
    </defs>
    <g fill="none" fill-rule="evenodd">
        <mask id="prefix__b" fill="#fff">
            <use xlink:href="#prefix__a"/>
        </mask>
        <use fill="#F4F7F9" xlink:href="#prefix__a"/>
        <g fill-rule="nonzero" mask="url(#prefix__b)">
            <g transform="translate(-13 -87)">
                <path fill="#DB374E" d="M247.114 163.67c0 21.662-12.877 29.225-28.763 29.225-15.885 0-28.763-7.563-28.763-29.225 0-21.662 28.763-49.219 28.763-49.219s28.763 27.557 28.763 49.22z"/>
                <path fill="#3F3D56" d="M217.598 171.453L229.858 149.025 217.644 168.609 217.777 160.458 226.226 144.231 217.812 158.3 218.05 143.639 227.098 130.721 218.087 141.334 218.236 114.451 217.341 148.515 208.179 134.491 217.23 151.389 216.373 167.763 216.348 167.328 205.743 152.511 216.316 168.864 216.208 170.911 216.189 170.942 216.198 171.11 214.023 192.96 216.929 192.96 217.277 191.195 227.824 174.882 217.304 189.582z"/>
                <path fill="#F2F2F2" d="M345.616 94.02c0 41.38-24.6 55.828-54.945 55.828S235.727 135.4 235.727 94.02c0-41.379 54.944-94.02 54.944-94.02s54.945 52.641 54.945 94.02z"/>
                <path fill="#3F3D56" d="M288.67 143.518L289.232 108.887 312.651 66.044 289.321 103.455 289.574 87.883 305.714 56.887 289.641 83.763 289.641 83.763 290.096 55.757 307.379 31.08 290.167 51.353 290.452 0 288.665 67.982 288.812 65.178 271.24 38.281 288.53 70.561 286.893 101.839 286.844 101.009 266.587 72.704 286.783 103.941 286.578 107.853 286.541 107.912 286.558 108.233 282.404 187.587 287.954 187.587 288.62 146.599 308.766 115.438z"/>
                <path fill="#3F3D56" d="M343.36 180.659c0 12.35-80.118 58.702-173.777 58.702C75.925 239.36 0 215.37 0 203.02c0-12.35 74.062 2.33 167.72 2.33s175.64-37.043 175.64-24.692z"/>
                <path fill="#000" d="M343.36 180.659c0 12.35-80.118 58.702-173.777 58.702C75.925 239.36 0 215.37 0 203.02c0-12.35 74.062 2.33 167.72 2.33s175.64-37.043 175.64-24.692z" opacity=".1"/>
                <path fill="#3F3D56" d="M343.36 180.659c0 12.35-80.118 44.725-173.777 44.725C75.925 225.384 0 215.372 0 203.021c0-12.35 74.062-11.647 167.72-11.647s175.64-23.066 175.64-10.715z"/>
                <ellipse cx="171.481" cy="205.368" fill="#000" opacity=".1" rx="72.014" ry="5.57"/>
                <path fill="#FF6584" d="M228.719 98.205l-2.196-2.196c-2.668-2.667-6.993-2.667-9.66 0l-42.597 42.597L131.67 96.01c-2.667-2.667-6.992-2.667-9.66 0l-2.195 2.196c-1.281 1.281-2.001 3.019-2.001 4.83 0 1.812.72 3.55 2 4.83l42.597 42.597-42.596 42.597c-1.281 1.28-2.001 3.018-2.001 4.83 0 1.811.72 3.548 2 4.83l2.197 2.195c2.667 2.668 6.992 2.668 9.66 0l42.596-42.596 42.597 42.596c2.667 2.668 6.992 2.668 9.66 0l2.196-2.196c2.667-2.667 2.667-6.992 0-9.66l-42.597-42.596 42.597-42.597c2.667-2.667 2.667-6.992 0-9.66z"/>
                <path fill="#000" d="M118.293 195.375l41.332-41.332-.397-.398-39.414 39.414c-.66.66-1.178 1.448-1.52 2.316zM119.225 99.59c2.667-2.667 6.992-2.667 9.66 0l42.596 42.597 42.597-42.597c2.667-2.667 6.992-2.667 9.66 0l2.196 2.196c1.925 1.926 2.522 4.812 1.52 7.344l1.265-1.265c1.28-1.28 2-3.018 2-4.83 0-1.811-.72-3.549-2-4.83l-2.196-2.196c-2.668-2.667-6.993-2.667-9.66 0l-42.597 42.597L131.67 96.01c-2.667-2.667-6.992-2.667-9.66 0l-2.195 2.196c-.66.66-1.178 1.448-1.52 2.316l.93-.93zM186.52 150.86l-3.183 3.183 42.597 42.597c1.925 1.925 2.522 4.811 1.52 7.343l1.265-1.265c1.28-1.28 2-3.018 2-4.83 0-1.811-.72-3.548-2-4.83l-42.2-42.198z" opacity=".1"/>
                <path fill="#DB374E" d="M49.6 179.262c0 17.99-10.695 24.272-23.889 24.272-13.193 0-23.888-6.282-23.888-24.272 0-17.991 23.888-40.879 23.888-40.879S49.6 161.271 49.6 179.262z"/>
                <path fill="#3F3D56" d="M25.086 185.725L35.268 167.098 25.124 183.364 25.234 176.593 32.252 163.116 25.263 174.802 25.461 162.625 32.975 151.896 25.492 160.711 25.616 138.383 24.872 166.675 17.263 155.027 24.78 169.062 24.068 182.661 24.047 182.3 15.24 169.994 24.02 183.575 23.932 185.276 23.916 185.301 23.923 185.441 22.117 203.588 24.53 203.588 24.82 202.122 33.579 188.574 24.841 200.782z"/>
            </g>
        </g>
    </g>
</svg>
