<?xml version="1.0" encoding="UTF-8"?>
<svg width="96px" height="40px" viewBox="0 0 96 40" version="1.1" xmlns="http://www.w3.org/2000/svg" xmlns:xlink="http://www.w3.org/1999/xlink">
    <title>logo-rain-white</title>
    <g id="Dashboard" stroke="none" stroke-width="1" fill="none" fill-rule="evenodd">
        <g id="Dashboard-/-Default-/-Primary" transform="translate(-14.000000, -10.000000)">
            <g id="topbar-colored">
                <g id="logo-rain-white" transform="translate(16.000000, 12.000000)">
                    <g id="icon-rain">
                        <circle id="border-outer" stroke="#2b384f" stroke-width="1.13999999" cx="18.2399998" cy="18.2399998" r="18.8099998"></circle>
                        <path d="M18.2399998,-1.21502806e-14 C28.3136735,-1.21502806e-14 36.4799995,8.16632606 36.4799995,18.2399998 C36.4799995,24.3368508 33.4886847,29.7350428 28.8936304,33.0470005 C28.3240051,32.939737 27.7907404,32.8401088 27.2931712,32.7474612 C32.1264115,29.7267162 35.3399996,24.3586448 35.3399996,18.2399998 C35.3399996,8.79593067 27.6840689,1.13999999 18.2399998,1.13999999 C8.79593067,1.13999999 1.13999999,8.79593067 1.13999999,18.2399998 C1.13999999,24.0064146 3.99424627,29.1061845 8.36702044,32.203591 C7.86388299,32.2973767 7.40223752,32.4265675 6.98219339,32.5909669 C2.73083194,29.2528794 0,24.0653496 0,18.2399998 C0,8.16632606 8.16632606,-1.21502806e-14 18.2399998,-1.21502806e-14 Z M18.2399998,2.27999997 C27.0544643,2.27999997 34.1999996,9.42553527 34.1999996,18.2399998 C34.1999996,24.4163365 30.691634,29.7732506 25.5590579,32.4265871 C24.2460495,32.1844929 23.3069133,32.0158707 22.7397884,31.9199996 C21.053873,31.6349996 17.682042,32.7749996 13.2986618,32.2049996 C12.1587408,32.0567681 11.1214344,31.9953831 10.1867428,32.0208445 C5.4568357,29.2525577 2.27999997,24.1172736 2.27999997,18.2399998 C2.27999997,9.42553527 9.42553527,2.27999997 18.2399998,2.27999997 Z M18.0974998,25.6499997 C18.0974998,25.6499997 16.5299998,27.9185996 16.5299998,28.7849996 C16.5299998,29.6519696 17.2310998,30.3524996 18.0974998,30.3524996 C18.9638998,30.3524996 19.6649998,29.6519696 19.6649998,28.7849996 C19.6649998,27.9185996 18.0974998,25.6499997 18.0974998,25.6499997 Z M23.7974997,22.2299997 C23.7974997,22.2299997 22.2299997,24.4985997 22.2299997,25.3649997 C22.2299997,26.2319697 22.9310997,26.9324997 23.7974997,26.9324997 C24.6638997,26.9324997 25.3649997,26.2319697 25.3649997,25.3649997 C25.3649997,24.4985997 23.7974997,22.2299997 23.7974997,22.2299997 Z M12.3974998,21.6599997 C12.3974998,21.6599997 10.8299999,23.9285997 10.8299999,24.7949997 C10.8299999,25.6619697 11.5310999,26.3624997 12.3974998,26.3624997 C13.2638998,26.3624997 13.9649998,25.6619697 13.9649998,24.7949997 C13.9649998,23.9285997 12.3974998,21.6599997 12.3974998,21.6599997 Z M15.3899998,6.77159957 C12.2062366,6.77159957 9.53052093,8.94680965 8.76792796,11.8921547 C7.28617634,12.6438179 6.26999992,14.1832385 6.26999992,15.9599998 C6.26999992,18.4784182 8.31158144,20.5199997 10.8299999,20.5199997 L10.8299999,20.5199997 L25.6499997,20.5199997 C28.1684181,20.5199997 30.2099996,18.4784182 30.2099996,15.9599998 C30.2099996,13.6317477 28.4650979,11.7110392 26.2116684,11.4342482 C25.8328808,9.83295173 24.3929143,8.64119987 22.6745993,8.64119987 C21.9295334,8.64119987 21.2368001,8.86526264 20.6601058,9.24968185 C19.4050464,7.73623437 17.5101744,6.77159957 15.3899998,6.77159957 Z" id="body" fill="#2b384f"></path>
                    </g>
                    <path d="M53.1015625,26 L53.1015625,23.1972656 L56.2363281,23.1777344 L57.4570312,26 L60.4355469,26 L58.8828125,22.3378906 C59.2864583,22.0839844 59.6510417,21.7845052 59.9765625,21.4394531 C60.3020833,21.094401 60.5771484,20.7167969 60.8017578,20.3066406 C61.0263672,19.8964844 61.1988932,19.4635417 61.3193359,19.0078125 C61.4397786,18.5520833 61.5,18.0833333 61.5,17.6015625 C61.5,17.0872396 61.4332682,16.5924479 61.2998047,16.1171875 C61.1663411,15.6419271 60.9775391,15.1959635 60.7333984,14.7792969 C60.4892578,14.3626302 60.1962891,13.9833984 59.8544922,13.6416016 C59.5126953,13.2998047 59.1350911,13.0068359 58.7216797,12.7626953 C58.3082682,12.5185547 57.8639323,12.3297526 57.3886719,12.1962891 C56.9134115,12.0628255 56.4186198,11.9960938 55.9042969,11.9960938 L55.9042969,11.9960938 L50.2988281,11.9960938 L50.2988281,26 L53.1015625,26 Z M55.9042969,20.4042969 L53.1015625,20.4042969 L53.1015625,14.7988281 L55.9042969,14.7988281 C56.2884115,14.7988281 56.6497396,14.8720703 56.9882812,15.0185547 C57.3268229,15.1650391 57.6230469,15.3652344 57.8769531,15.6191406 C58.1308594,15.8730469 58.3310547,16.1708984 58.4775391,16.5126953 C58.6240234,16.8544922 58.6972656,17.2174479 58.6972656,17.6015625 C58.6972656,17.9856771 58.6240234,18.3486328 58.4775391,18.6904297 C58.3310547,19.0322266 58.1308594,19.3300781 57.8769531,19.5839844 C57.6230469,19.8378906 57.3268229,20.0380859 56.9882812,20.1845703 C56.6497396,20.3310547 56.2884115,20.4042969 55.9042969,20.4042969 L55.9042969,20.4042969 Z M65.9726562,26 L65.9726562,23.1972656 L71.578125,23.1972656 L71.578125,26 L74.3808594,26 L74.3808594,17.6015625 C74.3808594,16.8268229 74.234375,16.0992839 73.9414062,15.4189453 C73.6484375,14.7386068 73.2480469,14.1445312 72.7402344,13.6367188 C72.2324219,13.1289062 71.6383464,12.7285156 70.9580078,12.4355469 C70.2776693,12.1425781 69.5501302,11.9960938 68.7753906,11.9960938 C68.000651,11.9960938 67.273112,12.1425781 66.5927734,12.4355469 C65.9124349,12.7285156 65.319987,13.1289062 64.8154297,13.6367188 C64.3108724,14.1445312 63.9121094,14.7386068 63.6191406,15.4189453 C63.3261719,16.0992839 63.1796875,16.8268229 63.1796875,17.6015625 L63.1796875,17.6015625 L63.1796875,26 L65.9726562,26 Z M71.578125,20.4042969 L65.9726562,20.4042969 L65.9726562,17.6015625 C65.9726562,17.2174479 66.0458984,16.8544922 66.1923828,16.5126953 C66.3388672,16.1708984 66.5390625,15.8730469 66.7929688,15.6191406 C67.046875,15.3652344 67.3447266,15.1650391 67.6865234,15.0185547 C68.0283203,14.8720703 68.391276,14.7988281 68.7753906,14.7988281 C69.1595052,14.7988281 69.5224609,14.8720703 69.8642578,15.0185547 C70.2060547,15.1650391 70.5039062,15.3652344 70.7578125,15.6191406 C71.0117188,15.8730469 71.2119141,16.1708984 71.3583984,16.5126953 C71.5048828,16.8544922 71.578125,17.2174479 71.578125,17.6015625 L71.578125,17.6015625 L71.578125,20.4042969 Z M79.6152344,26 L79.6152344,11.9960938 L76.8125,11.9960938 L76.8125,26 L79.6152344,26 Z M85.015625,26 L85.015625,16.78125 L90.4160156,26 L93.4140625,26 L93.4140625,11.9960938 L90.6113281,11.9960938 L90.6113281,21.2246094 L85.2109375,11.9960938 L82.2128906,11.9960938 L82.2128906,26 L85.015625,26 Z" id="RAIN" fill="#2b384f" fill-rule="nonzero"></path>
                </g>
            </g>
        </g>
    </g>
</svg>