<svg xmlns="http://www.w3.org/2000/svg" width="96" height="40" viewBox="0 0 96 40">
    <g fill="none" fill-rule="evenodd" transform="translate(2 2)">
        <circle cx="18.24" cy="18.24" r="18.81" stroke="#2c84d8" stroke-width="1.14"/>
        <path fill="#2c84d8" d="M18.24 0c10.074 0 18.24 8.166 18.24 18.24 0 6.097-2.991 11.495-7.586 14.807l-1.6-.3c4.832-3.02 8.046-8.388 8.046-14.507 0-9.444-7.656-17.1-17.1-17.1-9.444 0-17.1 7.656-17.1 17.1 0 5.766 2.854 10.866 7.227 13.964-.503.093-.965.223-1.385.387C2.731 29.253 0 24.065 0 18.24 0 8.166 8.166 0 18.24 0zm0 2.28c8.814 0 15.96 7.146 15.96 15.96 0 6.176-3.508 11.533-8.64 14.187-1.314-.243-2.253-.411-2.82-.507-1.686-.285-5.058.855-9.441.285-1.14-.148-2.178-.21-3.112-.184-4.73-2.768-7.907-7.904-7.907-13.781 0-8.814 7.146-15.96 15.96-15.96zm-.143 23.37s-1.567 2.269-1.567 3.135c0 .867.701 1.567 1.567 1.567.867 0 1.568-.7 1.568-1.567 0-.866-1.568-3.135-1.568-3.135zm5.7-3.42s-1.567 2.269-1.567 3.135c0 .867.701 1.567 1.567 1.567.867 0 1.568-.7 1.568-1.567 0-.866-1.568-3.135-1.568-3.135zm-11.4-.57s-1.567 2.269-1.567 3.135c0 .867.701 1.567 1.567 1.567.867 0 1.568-.7 1.568-1.567 0-.866-1.568-3.135-1.568-3.135zM15.39 6.772c-3.184 0-5.86 2.175-6.622 5.12-1.482.752-2.498 2.291-2.498 4.068 0 2.518 2.042 4.56 4.56 4.56h14.82c2.518 0 4.56-2.042 4.56-4.56 0-2.328-1.745-4.249-3.998-4.526-.38-1.601-1.82-2.793-3.537-2.793-.745 0-1.438.224-2.015.609-1.255-1.514-3.15-2.478-5.27-2.478z"/>
        <path fill="#191a1c" fill-rule="nonzero" d="M53.102 26v-2.803l3.134-.02L57.457 26h2.979l-1.553-3.662c.403-.254.768-.553 1.094-.899.325-.345.6-.722.825-1.132.224-.41.397-.843.517-1.3.12-.455.181-.924.181-1.405 0-.515-.067-1.01-.2-1.485-.134-.475-.322-.921-.567-1.338-.244-.416-.537-.796-.879-1.137-.341-.342-.719-.635-1.132-.88-.414-.243-.858-.432-1.333-.566-.476-.133-.97-.2-1.485-.2H50.3V26h2.803zm2.802-5.596h-2.802V14.8h2.802c.384 0 .746.073 1.084.22.339.146.635.346.889.6s.454.552.6.894c.147.341.22.704.22 1.089 0 .384-.073.747-.22 1.088-.146.342-.346.64-.6.894s-.55.454-.889.6c-.338.147-.7.22-1.084.22zM65.973 26v-2.803h5.605V26h2.803v-8.398c0-.775-.147-1.503-.44-2.183-.293-.68-.693-1.274-1.2-1.782-.509-.508-1.103-.908-1.783-1.201-.68-.293-1.408-.44-2.183-.44-.774 0-1.502.147-2.182.44-.68.293-1.273.693-1.778 1.2-.504.509-.903 1.103-1.196 1.783-.293.68-.44 1.408-.44 2.183V26h2.794zm5.605-5.596h-5.605v-2.802c0-.385.073-.748.22-1.09.146-.341.346-.639.6-.893s.552-.454.894-.6c.341-.147.704-.22 1.088-.22.385 0 .747.073 1.09.22.341.146.639.346.893.6s.454.552.6.894c.147.341.22.704.22 1.089v2.802zM79.615 26V11.996h-2.802V26h2.802zm5.4 0v-9.219L90.417 26h2.998V11.996h-2.803v9.229l-5.4-9.229h-2.998V26h2.803z"/>
    </g>
</svg>
