<svg xmlns="http://www.w3.org/2000/svg" width="32" height="32" viewBox="0 0 32 32">
    <g fill="#FFF" fill-rule="nonzero">
        <path d="M24 25.2h-1.333l-3.744-9.36c-.087.006-.169.027-.256.027a4 4 0 0 1-4-4c0-1.232.569-2.32 1.445-3.054L14.667 5.2h-1.334L8 18.534H6.667L4 11.867H0V29.2c0 1.466 1.2 2.667 2.667 2.667h26.666c1.467 0 2.667-1.2 2.667-2.667V11.867h-2.667L24 25.2zm-21.333-4h8v2.667h-8V21.2zm10.666 8H2.667v-2.666h10.666V29.2zm5.334 0H16v-2.666h2.667V29.2z"/>
        <path d="M29.333 0H2.667A2.675 2.675 0 0 0 0 2.667v6.666h5.805l1.528 3.82 4.195-10.486h4.943l2.137 5.34c.02-.002.038-.007.059-.007a4 4 0 0 1 4 4c0 1.16-.502 2.195-1.291 2.927l1.957 4.893 4.194-10.487H32V2.667C32 1.2 30.8 0 29.333 0z" opacity=".8"/>
        <circle cx="18.667" cy="12" r="1.333"/>
    </g>
</svg>
