<svg xmlns="http://www.w3.org/2000/svg" width="180" height="80" viewBox="0 0 180 80">
    <g fill="#3F4163" fill-rule="nonzero">
        <path d="M88 80H2c-1.2 0-2-.8-2-2s.8-2 2-2h86c1.2 0 2 .8 2 2s-.8 2-2 2zM80 24v46H10V24h70zm2-4H8c-1.2 0-2 .8-2 2v50c0 1.2.8 2 2 2h74c1.2 0 2-.8 2-2V22c0-1.2-.8-2-2-2zM150 34v42h-30V34h30zm2.8-4h-35c-1 0-1.8.8-1.8 1.6v46.8c0 .8.8 1.6 1.8 1.6h34.4c1 0 1.8-.8 1.8-1.6V31.2c0-.8-.6-1.2-1.2-1.2zM176 44v32h-16V44h16zm2-4h-20c-1.2 0-2 .8-2 2v36c0 1.2.8 2 2 2h20c1.2 0 2-.8 2-2V42c0-1.2-.8-2-2-2z"/>
        <path d="M146 4c0-2.2-1.8-4-4-4H64c-2.2 0-4 1.8-4 4v14h4V4h78v24h4V4zM114 64v-4H86v4h14v12h-8v4h22v-4h-10V64h10z"/>
    </g>
</svg>
