<svg xmlns="http://www.w3.org/2000/svg" width="159" height="129" viewBox="0 0 159 129">
    <g fill="#D8DADC" fill-rule="evenodd" opacity=".5" transform="rotate(-45 74.607 260.317)">
        <circle cx="223.996" cy="223.996" r="4"/>
        <circle cx="221.996" cy="205.996" r="4"/>
        <circle cx="203.996" cy="203.996" r="4"/>
        <circle cx="219.996" cy="187.996" r="4"/>
        <circle cx="201.996" cy="185.996" r="4"/>
        <circle cx="183.996" cy="183.996" r="4"/>
        <circle cx="217.997" cy="169.997" r="4"/>
        <circle cx="199.997" cy="167.997" r="4"/>
        <circle cx="181.997" cy="165.997" r="4"/>
        <circle cx="163.997" cy="163.997" r="4"/>
        <circle cx="215.997" cy="151.997" r="4"/>
        <circle cx="197.997" cy="149.997" r="4"/>
        <circle cx="179.997" cy="147.997" r="4"/>
        <circle cx="161.997" cy="145.997" r="4"/>
        <circle cx="143.997" cy="143.997" r="4"/>
        <circle cx="213.998" cy="133.998" r="4"/>
        <circle cx="195.998" cy="131.998" r="4"/>
        <circle cx="177.998" cy="129.998" r="4"/>
        <circle cx="159.998" cy="127.998" r="4"/>
        <circle cx="141.998" cy="125.998" r="4"/>
        <circle cx="123.998" cy="123.998" r="4"/>
        <circle cx="211.998" cy="115.998" r="4"/>
        <circle cx="193.998" cy="113.998" r="4"/>
        <circle cx="175.998" cy="111.998" r="4"/>
        <circle cx="157.998" cy="109.998" r="4"/>
        <circle cx="139.998" cy="107.998" r="4"/>
        <circle cx="121.998" cy="105.998" r="4"/>
        <circle cx="209.998" cy="97.998" r="4"/>
        <circle cx="191.998" cy="95.998" r="4"/>
        <circle cx="173.998" cy="93.998" r="4"/>
        <circle cx="155.998" cy="91.998" r="4"/>
        <circle cx="137.998" cy="89.998" r="4"/>
        <circle cx="207.999" cy="79.999" r="4"/>
        <circle cx="189.999" cy="77.999" r="4"/>
        <circle cx="171.999" cy="75.999" r="4"/>
        <circle cx="153.999" cy="73.999" r="4"/>
        <circle cx="205.999" cy="61.999" r="4"/>
        <circle cx="187.999" cy="59.999" r="4"/>
        <circle cx="169.999" cy="57.999" r="4"/>
        <circle cx="204" cy="44" r="4"/>
        <circle cx="186" cy="42" r="4"/>
        <circle cx="202" cy="26" r="4"/>
    </g>
</svg>
