<svg xmlns="http://www.w3.org/2000/svg" width="228" height="228" viewBox="0 0 228 228">
    <g fill="#FFF" fill-rule="evenodd" opacity=".1">
        <circle cx="224" cy="224" r="4"/>
        <circle cx="204" cy="224" r="4"/>
        <circle cx="184" cy="224" r="4"/>
        <circle cx="164" cy="224" r="4"/>
        <circle cx="144" cy="224" r="4"/>
        <circle cx="124" cy="224" r="4"/>
        <circle cx="104" cy="224" r="4"/>
        <circle cx="84" cy="224" r="4"/>
        <circle cx="64" cy="224" r="4"/>
        <circle cx="44" cy="224" r="4"/>
        <circle cx="24" cy="224" r="4"/>
        <circle cx="4" cy="224" r="4"/>
        <circle cx="224" cy="204" r="4"/>
        <circle cx="204" cy="204" r="4"/>
        <circle cx="184" cy="204" r="4"/>
        <circle cx="164" cy="204" r="4"/>
        <circle cx="144" cy="204" r="4"/>
        <circle cx="124" cy="204" r="4"/>
        <circle cx="104" cy="204" r="4"/>
        <circle cx="84" cy="204" r="4"/>
        <circle cx="64" cy="204" r="4"/>
        <circle cx="44" cy="204" r="4"/>
        <circle cx="24" cy="204" r="4"/>
        <circle cx="4" cy="204" r="4"/>
        <circle cx="224" cy="184" r="4"/>
        <circle cx="204" cy="184" r="4"/>
        <circle cx="184" cy="184" r="4"/>
        <circle cx="164" cy="184" r="4"/>
        <circle cx="144" cy="184" r="4"/>
        <circle cx="124" cy="184" r="4"/>
        <circle cx="104" cy="184" r="4"/>
        <circle cx="84" cy="184" r="4"/>
        <circle cx="64" cy="184" r="4"/>
        <circle cx="44" cy="184" r="4"/>
        <circle cx="24" cy="184" r="4"/>
        <circle cx="4" cy="184" r="4"/>
        <circle cx="224" cy="164" r="4"/>
        <circle cx="204" cy="164" r="4"/>
        <circle cx="184" cy="164" r="4"/>
        <circle cx="164" cy="164" r="4"/>
        <circle cx="144" cy="164" r="4"/>
        <circle cx="124" cy="164" r="4"/>
        <circle cx="104" cy="164" r="4"/>
        <circle cx="84" cy="164" r="4"/>
        <circle cx="64" cy="164" r="4"/>
        <circle cx="44" cy="164" r="4"/>
        <circle cx="24" cy="164" r="4"/>
        <circle cx="4" cy="164" r="4"/>
        <circle cx="224" cy="144" r="4"/>
        <circle cx="204" cy="144" r="4"/>
        <circle cx="184" cy="144" r="4"/>
        <circle cx="164" cy="144" r="4"/>
        <circle cx="144" cy="144" r="4"/>
        <circle cx="124" cy="144" r="4"/>
        <circle cx="104" cy="144" r="4"/>
        <circle cx="84" cy="144" r="4"/>
        <circle cx="64" cy="144" r="4"/>
        <circle cx="44" cy="144" r="4"/>
        <circle cx="24" cy="144" r="4"/>
        <circle cx="4" cy="144" r="4"/>
        <circle cx="224" cy="124" r="4"/>
        <circle cx="204" cy="124" r="4"/>
        <circle cx="184" cy="124" r="4"/>
        <circle cx="164" cy="124" r="4"/>
        <circle cx="144" cy="124" r="4"/>
        <circle cx="124" cy="124" r="4"/>
        <circle cx="104" cy="124" r="4"/>
        <circle cx="84" cy="124" r="4"/>
        <circle cx="64" cy="124" r="4"/>
        <circle cx="44" cy="124" r="4"/>
        <circle cx="24" cy="124" r="4"/>
        <circle cx="4" cy="124" r="4"/>
        <circle cx="224" cy="104" r="4"/>
        <circle cx="204" cy="104" r="4"/>
        <circle cx="184" cy="104" r="4"/>
        <circle cx="164" cy="104" r="4"/>
        <circle cx="144" cy="104" r="4"/>
        <circle cx="124" cy="104" r="4"/>
        <circle cx="104" cy="104" r="4"/>
        <circle cx="84" cy="104" r="4"/>
        <circle cx="64" cy="104" r="4"/>
        <circle cx="44" cy="104" r="4"/>
        <circle cx="24" cy="104" r="4"/>
        <circle cx="4" cy="104" r="4"/>
        <circle cx="224" cy="84" r="4"/>
        <circle cx="204" cy="84" r="4"/>
        <circle cx="184" cy="84" r="4"/>
        <circle cx="164" cy="84" r="4"/>
        <circle cx="144" cy="84" r="4"/>
        <circle cx="124" cy="84" r="4"/>
        <circle cx="104" cy="84" r="4"/>
        <circle cx="84" cy="84" r="4"/>
        <circle cx="64" cy="84" r="4"/>
        <circle cx="44" cy="84" r="4"/>
        <circle cx="24" cy="84" r="4"/>
        <circle cx="4" cy="84" r="4"/>
        <circle cx="224" cy="64" r="4"/>
        <circle cx="204" cy="64" r="4"/>
        <circle cx="184" cy="64" r="4"/>
        <circle cx="164" cy="64" r="4"/>
        <circle cx="144" cy="64" r="4"/>
        <circle cx="124" cy="64" r="4"/>
        <circle cx="104" cy="64" r="4"/>
        <circle cx="84" cy="64" r="4"/>
        <circle cx="64" cy="64" r="4"/>
        <circle cx="44" cy="64" r="4"/>
        <circle cx="24" cy="64" r="4"/>
        <circle cx="4" cy="64" r="4"/>
        <circle cx="224" cy="44" r="4"/>
        <circle cx="204" cy="44" r="4"/>
        <circle cx="184" cy="44" r="4"/>
        <circle cx="164" cy="44" r="4"/>
        <circle cx="144" cy="44" r="4"/>
        <circle cx="124" cy="44" r="4"/>
        <circle cx="104" cy="44" r="4"/>
        <circle cx="84" cy="44" r="4"/>
        <circle cx="64" cy="44" r="4"/>
        <circle cx="44" cy="44" r="4"/>
        <circle cx="24" cy="44" r="4"/>
        <circle cx="4" cy="44" r="4"/>
        <circle cx="224" cy="24" r="4"/>
        <circle cx="204" cy="24" r="4"/>
        <circle cx="184" cy="24" r="4"/>
        <circle cx="164" cy="24" r="4"/>
        <circle cx="144" cy="24" r="4"/>
        <circle cx="124" cy="24" r="4"/>
        <circle cx="104" cy="24" r="4"/>
        <circle cx="84" cy="24" r="4"/>
        <circle cx="64" cy="24" r="4"/>
        <circle cx="44" cy="24" r="4"/>
        <circle cx="24" cy="24" r="4"/>
        <circle cx="4" cy="24" r="4"/>
        <circle cx="224" cy="4" r="4"/>
        <circle cx="204" cy="4" r="4"/>
        <circle cx="184" cy="4" r="4"/>
        <circle cx="164" cy="4" r="4"/>
        <circle cx="144" cy="4" r="4"/>
        <circle cx="124" cy="4" r="4"/>
        <circle cx="104" cy="4" r="4"/>
        <circle cx="84" cy="4" r="4"/>
        <circle cx="64" cy="4" r="4"/>
        <circle cx="44" cy="4" r="4"/>
        <circle cx="24" cy="4" r="4"/>
        <circle cx="4" cy="4" r="4"/>
    </g>
</svg>
