<svg xmlns="http://www.w3.org/2000/svg" width="64" height="64" viewBox="0 0 64 64">
    <g fill="none" fill-rule="evenodd">
        <circle cx="32" cy="32" r="32" fill="#FFA723"/>
        <g fill="#FFF" fill-rule="nonzero">
            <path d="M7.28 23.73l-4.34-1.82C1.33 25.83.49 30.03.49 34.44h4.76c0-3.64.7-7.28 2.03-10.71zM10.15 10.78c-2.87 2.94-5.18 6.44-6.86 10.29l10.57 4.41c1.05-2.45 2.52-4.62 4.34-6.51l-8.05-8.19zM23.24 22.54c1.33-1.26 2.8-2.24 4.48-3.01L21.07 3.29c-3.85 1.61-7.28 3.99-10.22 6.86l12.39 12.39zM31.29 25.55c1.05-.35 2.1-.56 3.22-.56V.49c-4.41 0-8.68.84-12.53 2.45l9.31 22.61zM34.51 33.25v-7.56c-1.05 0-2.03.21-2.94.56l2.94 7zM28.07 20.16c-1.61.7-3.08 1.68-4.34 2.87l9.38 9.38-5.04-12.25zM32.48 33.18L18.76 19.39c-1.75 1.82-3.22 3.99-4.2 6.3l17.92 7.49zM7.98 24.01c-1.33 3.22-2.03 6.79-2.03 10.5h27.3c-8.82-3.64-17.5-7.28-25.27-10.5zM.91.7H10.57V2.59H.91zM.91 3.64H8.96V5.53H.91zM.91 6.58H7.91V8.47H.91zM.91 9.52H4.9V11.41H.91z" transform="translate(15 15)"/>
        </g>
    </g>
</svg>
