<svg xmlns="http://www.w3.org/2000/svg" width="64" height="64" viewBox="0 0 64 64">
    <g fill="none" fill-rule="evenodd">
        <circle cx="32" cy="32" r="32" fill="#2B384F"/>
        <g fill="#FFF" fill-rule="nonzero">
            <path d="M21.392 22.974c-.084-2.149-2.058-3.808-4.319-3.332-1.295.273-2.373 1.323-2.681 2.611-.497 2.107.882 3.997 2.8 4.354-.483 1.008-1.232 1.617-2.254 1.792-.364.063-.644.336-.644.7v2.156c0 .406.35.756.756.714 3.899-.357 6.23-3.528 6.335-8.638.007-.077.021-.147.021-.217 0-.021-.007-.035-.007-.056 0-.028.007-.056.007-.091h-.014v.007zM17.85 5.334c-1.967 0-3.556 1.589-3.556 3.556s1.589 3.556 3.556 3.556 3.556-1.589 3.556-3.556-1.589-3.556-3.556-3.556zM10.024 0H8.96C6.013 0 3.626 2.387 3.626 5.334v8.155L.588 16.52c-.693.693-.693 1.82 0 2.513l3.038 3.038v8.155c0 2.947 2.387 5.334 5.334 5.334h1.064c.392 0 .714-.315.714-.714v-2.135c0-.392-.315-.714-.714-.714H8.96c-.98 0-1.778-.798-1.778-1.778v-8.89c0-.469-.189-.924-.518-1.26L4.361 17.78l2.296-2.296c.336-.336.518-.784.518-1.26v-8.89c0-.98.798-1.778 1.778-1.778h1.064c.392 0 .714-.315.714-.714V.714C10.738.315 10.423 0 10.024 0zM35.112 16.52l-3.038-3.038V5.334C32.074 2.387 29.687 0 26.74 0h-1.064c-.392 0-.714.315-.714.714v2.135c0 .392.315.714.714.714h1.064c.98 0 1.778.798 1.778 1.778v8.89c0 .469.189.924.518 1.26l2.296 2.296-2.296 2.296c-.336.336-.518.784-.518 1.26v8.89c0 .98-.798 1.778-1.778 1.778h-1.064c-.392 0-.714.315-.714.714v2.135c0 .392.315.714.714.714h1.064c2.947 0 5.334-2.387 5.334-5.334v-8.169l3.038-3.038c.693-.693.693-1.813 0-2.513z" transform="translate(14 14)"/>
        </g>
    </g>
</svg>
