<svg xmlns="http://www.w3.org/2000/svg" width="64" height="64" viewBox="0 0 64 64">
    <g fill="none" fill-rule="evenodd">
        <circle cx="32" cy="32" r="32" fill="#2C84D8"/>
        <path fill="#FFF" fill-rule="nonzero" d="M26.638 33.798h6.38v6.613h-6.38v-6.613zm13.917 2.191h6.62v-4.787h-6.62v4.787zm0 3.367h6.62V37.45h-6.62v1.906zm-22.331 1.055h6.38v-6.613h-6.38v6.613zm14.794 5.315H17.267c-2.353 0-4.267-1.947-4.267-4.341V18.422C13 15.988 14.954 14 17.347 14H42.27c2.393 0 4.347 1.988 4.347 4.422v5.193h-2.792v-1.258H15.831v18.541c0 1.095.878 1.988 1.954 1.988h15.233v2.84zM24.445 18.3c0 .771.598 1.42 1.395 1.42.758 0 1.396-.608 1.396-1.42 0-.811-.598-1.42-1.396-1.42-.797 0-1.395.65-1.395 1.42zm-4.028 0c0 .771.598 1.42 1.396 1.42.678 0 1.236-.486 1.356-1.136 0-.08.04-.202.04-.284 0-.08 0-.202-.04-.284-.12-.649-.678-1.136-1.356-1.136-.798 0-1.396.65-1.396 1.42zm-4.027 0c0 .771.598 1.42 1.395 1.42.758 0 1.396-.608 1.396-1.42 0-.811-.598-1.42-1.396-1.42-.797 0-1.395.65-1.395 1.42zm16.628 10.873c0-1.663.718-3.124 1.835-4.178h-16.63v6.288h14.795v-2.11zM52 48.16V29.173c0-1.541-1.236-2.84-2.791-2.84H38.482c-1.516 0-2.792 1.258-2.792 2.84V48.16c0 1.542 1.236 2.84 2.792 2.84h10.727C50.724 51 52 49.742 52 48.16zm-2.791-19.068c.04 0 .08.04.08.081V48.16c0 .04-.04.081-.08.081H38.482c-.04 0-.08-.04-.08-.08V29.172c0-.04.04-.08.08-.08h10.727zm-8.654 13.672h6.62v-1.907h-6.62v1.907zm0 3.368h6.62v-1.907h-6.62v1.907z"/>
    </g>
</svg>
