<svg xmlns="http://www.w3.org/2000/svg" width="32" height="32" viewBox="0 0 32 32">
    <g fill="none" fill-rule="evenodd">
        <rect width="32" height="32" fill="#FFF" rx="3.5"/>
        <g fill-rule="nonzero">
            <path fill="#6B4F9B" d="M8.784 15.8c1.073 0 2.225-1.47 2.225-2.981s-.996-2.49-2.225-2.49c-1.228 0-2.224.979-2.224 2.49 0 1.51 1.117 2.981 2.224 2.981zM22.816 15.8c1.072 0 2.224-1.47 2.224-2.981s-.996-2.49-2.224-2.49c-1.229 0-2.225.979-2.225 2.49 0 1.51 1.117 2.981 2.225 2.981z" opacity=".7"/>
            <path fill="#5B54A5" d="M15.8 16.142c1.65 0 3.422-2.206 3.422-4.472 0-2.266-1.532-3.735-3.422-3.735-1.89 0-3.422 1.469-3.422 3.735s1.718 4.472 3.422 4.472zM22.181 20.246c-.42-.802-.725-1.206-1.295-1.778-.492-.493-1.962-1.19-2.91-.883-.757.16-.793.58-2.005.58-1.212 0-1.248-.42-2.005-.58-.948-.306-2.418.39-2.91.883-.57.572-.876.976-1.295 1.778-.21.403-.649 1.576-.377 2.08.344.64 1.182.904 3.485 1.176 1.38.163 3.102.163 3.102.163s1.722 0 3.102-.163c2.303-.272 3.14-.536 3.485-1.175.272-.505-.167-1.678-.377-2.08z"/>
            <path fill="#9783B9" d="M26.796 18.31c-.27-.536-.466-.805-.831-1.187-.316-.33-1.26-.793-1.869-.589-.486.107-.508.387-1.286.387s-.801-.28-1.287-.387c-.49-.164-1.194.104-1.616.386.58.24 1.097.573 1.404.893.638.665.983 1.156 1.419 2.022.084.167.198.439.3.752a18.307 18.307 0 0 0 1.77-.106c1.479-.182 2.017-.358 2.238-.784.175-.337-.107-1.12-.242-1.388zM8.929 19.833c.433-.865.776-1.356 1.412-2.02.298-.312.793-.636 1.352-.874-.416-.289-1.14-.573-1.638-.405-.484.107-.507.387-1.282.387s-.798-.28-1.281-.387c-.607-.204-1.546.26-1.861.59-.365.38-.56.65-.828 1.185-.135.268-.415 1.05-.241 1.387.22.426.755.603 2.228.784.689.084 1.509.103 1.836.107.138-.42.288-.724.303-.754z"/>
        </g>
    </g>
</svg>
