<svg xmlns="http://www.w3.org/2000/svg" width="32" height="32" viewBox="0 0 32 32">
    <g fill="none" fill-rule="evenodd">
        <rect width="32" height="32" fill="#FFF" rx="3.5"/>
        <g fill-rule="nonzero">
            <path fill="#C7283B" d="M24 8.446h-2.856V7.02a.222.222 0 0 0-.223-.22h-1.518a.222.222 0 0 0-.223.22v1.426h-6.537V7.02a.222.222 0 0 0-.224-.22h-1.517a.222.222 0 0 0-.223.22v1.426H7.823a.222.222 0 0 0-.223.22v6.036c0 .132.112.22.223.22h1.562c.134 0 .223-.11.223-.22v-1.448c0-.132.112-.22.223-.22h12.116c.134 0 .223.11.223.22v9.417c0 .131-.112.22-.223.22H9.854a.222.222 0 0 1-.224-.22v-1.866a.222.222 0 0 0-.223-.22H7.845a.222.222 0 0 0-.223.22v3.775c0 .132.112.22.223.22H24c.134 0 .223-.11.223-.22V8.666c0-.11-.112-.22-.223-.22z"/>
            <path fill="#F04C5B" d="M12.343 18.58v1.932l2.968-2.92-2.968-2.897v1.931h-7.72a.222.222 0 0 0-.223.22v1.515c0 .131.112.22.223.22H12.343z"/>
        </g>
    </g>
</svg>
