<svg xmlns="http://www.w3.org/2000/svg" width="20" height="20" viewBox="0 0 20 20">
    <defs>
        <linearGradient id="a" x1="13.25%" x2="88.767%" y1="12.615%" y2="88.183%">
            <stop offset="0%" stop-color="#00B395"/>
            <stop offset="48.934%" stop-color="#E4018D"/>
            <stop offset="100%" stop-color="#FFBA01"/>
        </linearGradient>
    </defs>
    <path fill="url(#a)" fill-rule="nonzero" d="M17.7 17.3a2.294 2.294 0 0 1-2.3-2.3c0-1.275 1.025-2.3 2.3-2.3S20 13.725 20 15s-1.025 2.3-2.3 2.3zm0-7.675a2.294 2.294 0 0 1-2.3-2.3c0-1.275 1.025-2.3 2.3-2.3S20 6.05 20 7.325s-1.025 2.3-2.3 2.3zM10 25a2.294 2.294 0 0 1-2.3-2.3c0-1.275 1.025-2.3 2.3-2.3s2.3 1.025 2.3 2.3S11.275 25 10 25zm0-7.7A2.294 2.294 0 0 1 7.7 15c0-1.275 1.025-2.3 2.3-2.3s2.3 1.025 2.3 2.3-1.025 2.3-2.3 2.3zm0-7.675a2.294 2.294 0 0 1-2.3-2.3C7.7 6.05 8.725 5 10 5s2.3 1.025 2.3 2.3-1.025 2.325-2.3 2.325zM2.3 25A2.294 2.294 0 0 1 0 22.7c0-1.275 1.025-2.3 2.3-2.3s2.3 1.025 2.3 2.3c.025 1.275-1.025 2.3-2.3 2.3zm0-7.7A2.294 2.294 0 0 1 0 15c0-1.275 1.025-2.3 2.3-2.3s2.3 1.025 2.3 2.3-1.025 2.3-2.3 2.3zm0-7.675a2.294 2.294 0 0 1-2.3-2.3c0-1.275 1.025-2.3 2.3-2.3s2.3 1.025 2.3 2.3-1.025 2.3-2.3 2.3zm15.4 10.75c1.275 0 2.3 1.025 2.3 2.3s-1.025 2.3-2.3 2.3a2.294 2.294 0 0 1-2.3-2.3c-.025-1.25 1.025-2.3 2.3-2.3z" transform="translate(0 -5)"/>
</svg>
